<?xml version="1.0" standalone="no"?>
<!DOCTYPE svg PUBLIC "-//W3C//DTD SVG 20010904//EN"
 "http://www.w3.org/TR/2001/REC-SVG-20010904/DTD/svg10.dtd">
<svg version="1.0" xmlns="http://www.w3.org/2000/svg"
 width="190.000000pt" height="172.000000pt" viewBox="0 0 190.000000 172.000000"
 preserveAspectRatio="xMidYMid meet">

<g transform="translate(0.000000,172.000000) scale(0.100000,-0.100000)"
fill="#000000" stroke="none">
<path d="M609 1309 c-43 -25 -69 -65 -68 -105 1 -16 -2 -65 -5 -108 -5 -58 -2
-96 10 -140 28 -105 28 -106 6 -121 -26 -19 -41 -169 -20 -208 12 -24 79 -77
97 -77 5 0 12 -11 15 -25 8 -32 53 -55 107 -55 32 0 39 -3 32 -12 -6 -7 -13
-31 -16 -53 -4 -22 -29 -85 -57 -140 -27 -55 -53 -114 -56 -132 l-6 -31 78
-18 c111 -26 283 -24 388 5 99 26 203 77 284 137 75 57 75 60 33 228 -59 230
-111 262 -187 114 -13 -27 -29 -48 -34 -48 -15 0 -29 67 -20 102 4 18 17 65
28 103 69 238 67 318 -13 455 -8 14 -15 37 -15 51 0 31 -42 72 -89 88 -42 14
-108 14 -116 1 -4 -6 -37 -10 -78 -9 -40 2 -95 -1 -123 -5 -42 -6 -52 -5 -57
8 -9 23 -74 20 -118 -5z"/>
</g>
</svg>
